<?xml version="1.0" encoding="utf-8"?>
<!-- Generator: Adobe Illustrator 15.1.0, SVG Export Plug-In . SVG Version: 6.00 Build 0)  -->
<!DOCTYPE svg PUBLIC "-//W3C//DTD SVG 1.1//EN" "http://www.w3.org/Graphics/SVG/1.1/DTD/svg11.dtd">
<svg version="1.1" id="Layer_2" xmlns="http://www.w3.org/2000/svg" xmlns:xlink="http://www.w3.org/1999/xlink" x="0px" y="0px"
	 width="850.39px" height="850.395px" viewBox="0 0 850.39 850.395" enable-background="new 0 0 850.39 850.395"
	 xml:space="preserve">
<g>
	<polyline fill="none" stroke="#000000" stroke-width="0.2835" stroke-miterlimit="10" points="791.854,564.46 791.854,570.981 
		811.129,570.981 811.129,586.288 791.854,586.288 791.854,592.808 727.224,592.808 727.224,586.288 717.586,586.288 
		717.586,570.981 727.224,570.98 727.224,564.46 	"/>
	<circle fill="none" stroke="#000000" stroke-width="0.2835" stroke-miterlimit="10" cx="764.357" cy="578.634" r="3.969"/>
	<circle fill="none" stroke="#000000" stroke-width="0.2835" stroke-miterlimit="10" cx="788.451" cy="578.634" r="3.969"/>
	<circle fill="none" stroke="#000000" stroke-width="0.2835" stroke-miterlimit="10" cx="740.263" cy="578.634" r="3.969"/>
</g>
<g>
	<g>
		<path fill="#EC008C" d="M461.794,720.389l-5.087,3.285l-6.312-9.77l-0.933,8.621l-0.401,0.26l-8.258-2.687l6.314,9.771
			l-4.941,3.191l-10.895-16.865l4.61-2.98l9.272,2.979l1.122-9.691l4.61-2.979L461.794,720.389z"/>
		<path fill="#EC008C" d="M459.747,700.103c0.328,0.511,0.426,1.062,0.291,1.655c-0.135,0.594-0.451,1.051-0.955,1.377
			c-0.342,0.221-0.704,0.338-1.089,0.357c-0.386,0.019-0.749-0.059-1.093-0.235c-0.342-0.175-0.625-0.433-0.842-0.772
			c-0.327-0.503-0.43-1.055-0.309-1.649c0.121-0.596,0.438-1.058,0.949-1.388c0.503-0.326,1.055-0.422,1.656-0.293
			C458.958,699.282,459.421,699.599,459.747,700.103z M469.948,715.123l-4.395,2.836l-8-12.387l4.391-2.838L469.948,715.123z"/>
		<path fill="#EC008C" d="M476.288,694.418l1.218,5.438c-1.072-0.202-1.95-0.084-2.632,0.356c-0.617,0.397-1.016,0.952-1.197,1.658
			c-0.178,0.71-0.111,1.762,0.201,3.158l3.445,5.328l-4.381,2.831l-8.004-12.388l4.381-2.832l1.934,2.994
			c-0.201-0.916-0.178-1.951,0.066-3.104c0.244-1.15,0.836-2.032,1.777-2.641c0.494-0.318,0.975-0.525,1.438-0.617
			C474.998,694.508,475.583,694.447,476.288,694.418z"/>
		<path fill="#EC008C" d="M509.8,680.719c0.928,1.438,1.416,2.809,1.467,4.113c0.051,1.309-0.214,2.465-0.791,3.473
			c-0.581,1.008-1.322,1.802-2.223,2.384c-0.648,0.419-1.258,0.708-1.831,0.862c-0.569,0.156-1.045,0.234-1.421,0.229
			c-0.377-0.004-0.787-0.035-1.228-0.096l0.724,1.119l-4.381,2.83l-10.896-16.865l4.383-2.83l3.363,5.207
			c0.163-0.461,0.465-0.971,0.91-1.527s1.039-1.077,1.787-1.561c0.998-0.645,1.994-1.031,2.99-1.164
			c0.994-0.132,1.937-0.045,2.816,0.26c0.881,0.305,1.686,0.764,2.418,1.38C508.618,679.146,509.255,679.877,509.8,680.719z
			 M505.123,683.603c-0.684-1.062-1.446-1.717-2.285-1.964c-0.837-0.248-1.585-0.157-2.243,0.268
			c-0.654,0.424-1.225,1.163-1.703,2.221l3.059,4.733c0.994,0.187,1.922,0.001,2.779-0.554c0.545-0.354,0.942-0.922,1.191-1.709
			C506.171,685.809,505.907,684.811,505.123,683.603z"/>
		<path fill="#EC008C" d="M525.692,670.315c0.795,1.233,1.236,2.507,1.326,3.816c0.088,1.312-0.217,2.592-0.926,3.841
			c-0.703,1.25-1.824,2.369-3.356,3.359c-1.534,0.991-3.017,1.551-4.444,1.682c-1.43,0.127-2.719-0.117-3.875-0.741
			c-1.154-0.622-2.133-1.55-2.927-2.782c-0.604-0.932-1.003-1.877-1.2-2.832c-0.195-0.952-0.182-1.918,0.041-2.897
			c0.225-0.979,0.68-1.913,1.357-2.8c0.682-0.888,1.6-1.705,2.76-2.457c1.17-0.754,2.305-1.26,3.408-1.518
			c1.104-0.259,2.138-0.291,3.098-0.094c0.959,0.195,1.838,0.58,2.635,1.158C524.388,668.627,525.088,669.383,525.692,670.315z
			 M521.079,673.297c-0.635-0.982-1.344-1.613-2.128-1.895c-0.786-0.281-1.585-0.16-2.394,0.365
			c-0.805,0.518-1.24,1.193-1.307,2.025c-0.067,0.83,0.217,1.736,0.851,2.718c0.629,0.974,1.343,1.606,2.14,1.896
			c0.795,0.289,1.593,0.178,2.389-0.334c0.809-0.524,1.244-1.208,1.308-2.045C521.999,675.188,521.714,674.277,521.079,673.297z"/>
		<path fill="#EC008C" d="M541.284,668.022c-0.312,0.513-0.803,1.13-1.472,1.847c-0.668,0.719-1.366,1.314-2.097,1.787
			c-3.157,2.038-5.729,1.517-7.723-1.566l-3.191-4.941l-1.982,1.281l-0.496-0.766l2.012-9.786l0.497-0.323l2.399,3.713l4.186-2.703
			l1.967,3.041l-4.188,2.705l2.562,3.967c0.299,0.463,0.568,0.816,0.809,1.064c0.238,0.248,0.555,0.381,0.94,0.4
			c0.388,0.021,0.849-0.143,1.384-0.488c0.698-0.449,1.424-1.336,2.184-2.651L541.284,668.022z"/>
	</g>
	<g>
		
			<rect x="362.296" y="764.527" fill="none" stroke="#000000" stroke-width="0.2835" stroke-miterlimit="10" width="24.095" height="8.22"/>
		
			<rect x="597.005" y="618.259" fill="none" stroke="#000000" stroke-width="0.2835" stroke-miterlimit="10" width="8.22" height="24.096"/>
		<path fill="none" stroke="#000000" stroke-width="0.2835" stroke-miterlimit="10" d="M353.084,779.831h53.147
			c0,0,36.807-34.22,84.332-65.903c53.151-35.432,143.211-72.725,143.211-72.725c-22.025-46.912-87.936-71.135-146.044-66.883
			c-58.108,4.253-107.715,42.043-120.807,89.684C349.989,725.623,353.084,779.831,353.084,779.831z"/>
		<path fill="none" stroke="#000000" stroke-width="0.2835" stroke-miterlimit="10" d="M487.728,687.356
			c4.107-0.003,7.44,3.329,7.441,7.438c0.002,4.11-3.333,7.44-7.441,7.442c-4.111-0.002-7.44-3.332-7.439-7.442
			C480.288,690.688,483.617,687.354,487.728,687.356z"/>
	</g>
</g>
<g>
	<g>
		<path fill="#EC008C" d="M228.106,348.962l5.02,3.389l-6.51,9.641l8.296-2.527l0.397,0.268l0.769,8.648l6.51-9.643l4.873,3.293
			l-11.233,16.639l-4.551-3.068l-0.9-9.699l-9.354,2.771l-4.551-3.068L228.106,348.962z"/>
		<path fill="#EC008C" d="M210.252,358.808c0.341-0.504,0.81-0.809,1.408-0.918s1.145,0.004,1.641,0.338
			c0.338,0.229,0.587,0.516,0.758,0.861c0.168,0.348,0.239,0.711,0.212,1.096s-0.152,0.746-0.381,1.08
			c-0.334,0.496-0.8,0.809-1.396,0.93c-0.595,0.123-1.145,0.014-1.649-0.328c-0.496-0.336-0.802-0.805-0.919-1.408
			C209.808,359.855,209.917,359.306,210.252,358.808z M220.062,343.529l4.333,2.93l-8.252,12.219l-4.334-2.924L220.062,343.529z"/>
		<path fill="#EC008C" d="M198.531,345.826l4.522-3.254c0.236,1.064,0.689,1.826,1.361,2.279c0.608,0.412,1.274,0.562,1.995,0.449
			c0.725-0.113,1.666-0.588,2.825-1.424l3.55-5.26l4.323,2.918l-8.253,12.225l-4.323-2.92l1.995-2.953
			c-0.764,0.545-1.726,0.93-2.88,1.158c-1.156,0.227-2.197,0.029-3.128-0.598c-0.486-0.33-0.867-0.689-1.132-1.08
			C199.119,346.976,198.835,346.46,198.531,345.826z"/>
		<path fill="#EC008C" d="M172.778,320.38c0.957-1.418,2.026-2.404,3.208-2.965c1.183-0.561,2.351-0.77,3.503-0.633
			c1.154,0.139,2.177,0.506,3.063,1.107c0.641,0.432,1.146,0.879,1.514,1.346c0.367,0.461,0.625,0.869,0.768,1.217
			c0.145,0.348,0.275,0.736,0.395,1.166l0.744-1.105l4.322,2.918l-11.235,16.645l-4.323-2.92l3.47-5.139
			c-0.487,0.031-1.074-0.047-1.763-0.236c-0.687-0.193-1.397-0.533-2.135-1.033c-0.984-0.664-1.732-1.428-2.245-2.293
			c-0.512-0.863-0.801-1.764-0.866-2.693c-0.065-0.928,0.04-1.848,0.32-2.764C171.794,322.085,172.216,321.212,172.778,320.38z
			 M177.266,323.55c-0.709,1.045-1.011,2.004-0.91,2.873c0.102,0.865,0.479,1.52,1.127,1.957c0.647,0.436,1.551,0.67,2.71,0.695
			l3.154-4.672c-0.219-0.986-0.754-1.768-1.602-2.338c-0.537-0.363-1.217-0.506-2.039-0.426S178.069,322.355,177.266,323.55z"/>
		<path fill="#EC008C" d="M156.972,309.847c0.821-1.217,1.818-2.123,2.989-2.719c1.172-0.598,2.47-0.816,3.896-0.656
			c1.425,0.158,2.895,0.748,4.406,1.77c1.515,1.021,2.611,2.166,3.29,3.428c0.68,1.264,0.959,2.545,0.842,3.854
			c-0.12,1.307-0.589,2.57-1.411,3.785c-0.622,0.92-1.333,1.66-2.133,2.215s-1.693,0.92-2.683,1.1
			c-0.987,0.178-2.024,0.125-3.108-0.148c-1.083-0.279-2.196-0.803-3.342-1.576c-1.152-0.777-2.064-1.623-2.733-2.539
			c-0.672-0.912-1.107-1.852-1.303-2.811c-0.196-0.959-0.188-1.918,0.031-2.879C155.932,311.71,156.35,310.769,156.972,309.847z
			 M161.523,312.921c-0.654,0.967-0.957,1.867-0.908,2.699c0.052,0.832,0.477,1.52,1.275,2.057c0.792,0.539,1.586,0.674,2.376,0.408
			c0.791-0.266,1.513-0.881,2.166-1.85c0.649-0.961,0.949-1.865,0.904-2.711s-0.462-1.535-1.246-2.066
			c-0.799-0.537-1.599-0.67-2.394-0.4C162.9,311.332,162.176,311.951,161.523,312.921z"/>
		<path fill="#EC008C" d="M148.742,296.406c0.593,0.088,1.353,0.297,2.276,0.629c0.922,0.332,1.744,0.742,2.465,1.227
			c3.114,2.105,3.645,4.676,1.591,7.717l-3.292,4.875l1.958,1.32l-0.511,0.758l-9.789,1.992l-0.494-0.33l2.475-3.664l-4.13-2.789
			l2.024-3.002l4.133,2.787l2.643-3.912c0.308-0.457,0.526-0.844,0.662-1.162c0.133-0.316,0.132-0.66-0.001-1.023
			s-0.464-0.723-0.992-1.08c-0.688-0.465-1.788-0.787-3.298-0.967L148.742,296.406z"/>
	</g>
	<g>
		
			<rect x="69.837" y="257.184" fill="none" stroke="#000000" stroke-width="0.2835" stroke-miterlimit="10" width="24.096" height="8.221"/>
		
			<rect x="303.976" y="388.147" fill="none" stroke="#000000" stroke-width="0.2835" stroke-miterlimit="10" width="8.219" height="24.094"/>
		<path fill="none" stroke="#000000" stroke-width="0.2835" stroke-miterlimit="10" d="M60.625,250.666h53.148
			c0,0,36.804,34.221,84.331,65.906c53.149,35.432,143.21,72.727,143.21,72.727c-22.029,46.912-87.939,71.133-146.049,66.878
			c-58.108-4.251-107.713-42.044-120.803-89.685C57.53,304.873,60.625,250.666,60.625,250.666z"/>
		<path fill="none" stroke="#000000" stroke-width="0.2835" stroke-miterlimit="10" d="M195.267,343.144
			c4.108,0,7.442-3.332,7.44-7.438c0.002-4.111-3.331-7.443-7.44-7.443c-4.111,0-7.44,3.33-7.439,7.439
			C187.827,339.812,191.156,343.144,195.267,343.144z"/>
	</g>
</g>
<g>
	
		<rect x="784.445" y="225.469" fill="none" stroke="#000000" stroke-width="0.2835" stroke-miterlimit="10" width="8.22" height="27.78"/>
	
		<rect x="700.398" y="225.47" fill="none" stroke="#000000" stroke-width="0.2835" stroke-miterlimit="10" width="8.22" height="27.78"/>
	<circle fill="none" stroke="#000000" stroke-width="0.2835" stroke-miterlimit="10" cx="722.508" cy="239.36" r="3.26"/>
	<circle fill="none" stroke="#000000" stroke-width="0.2835" stroke-miterlimit="10" cx="746.603" cy="239.36" r="3.26"/>
	<circle fill="none" stroke="#000000" stroke-width="0.2835" stroke-miterlimit="10" cx="770.697" cy="239.36" r="3.26"/>
	<path fill="none" stroke="#000000" stroke-width="0.2835" stroke-miterlimit="10" d="M703.195,281.879
		c-1.029-2.833,1.052-8.539,2.678-10.693c0.945,3.131,4.279,5.19,8.131,5.19c4.697,0,8.504-3.246,8.504-7.252
		s-3.807-7.252-8.504-7.252c-3.512,0-6.85,1.154-9.823,4.407c-1.149,1.257-4.147,5.242-5.136,15.6l-7.718,0.001v-85.04h19.134
		l-3.543-9.212h14.173l-3.543,9.212h58.11l-3.543-9.212h14.173l-3.543,9.212h11.338c0.001-67.324-32.854-80.933-33.167-120.473
		l65.279-7.354l4.738,35.7l9.637,1.088v68.582l-23.102,15.369V319.48c0,0-30.336,21.218-30.336,53.107
		c0,6.057-0.984,13.073,3.045,16.479c6.809,5.754,40.756,3.698,40.756,3.698v14.407l-70.176-3.801
		c0-27.313-1.201-34.854,9.939-52.459c1.563-2.471,8.392-9.389,6.135-14.165c-2.166-4.585-7.121-0.025-8.97,0.073
		c0-17.843,26.221-15.632,26.221-54.94c-0.989-10.357-3.909-14.343-5.058-15.6c-2.975-3.253-6.312-4.407-9.824-4.407
		c-4.696,0-8.504,3.246-8.504,7.252s3.808,7.252,8.504,7.252c3.853,0,7.186-2.06,8.131-5.19c1.627,2.154,3.686,7.86,2.655,10.693
		H703.195z"/>
</g>
<g>
	<path fill="none" stroke="#000000" stroke-width="0.2835" stroke-miterlimit="10" d="M416.615,789.838h-16.688v5.519h-9.638v23.81
		h9.638v5.52h16.688v9.637h14.504h10.928v-2.305v-7.332h9.772c3.967-4.709,6.361-10.785,6.361-17.425
		c0-6.638-2.395-12.716-6.361-17.423h-9.772v-7.334v-2.305h-10.928h-14.504V789.838z"/>
	<path fill="none" stroke="#000000" stroke-width="0.2835" stroke-miterlimit="10" d="M417.65,803.834h-3.715v7.143h3.789
		c1.629,5.921,7.037,10.275,13.475,10.275c7.725,0,13.988-6.264,13.988-13.991c0-7.726-6.264-13.988-13.988-13.988
		C424.658,793.272,419.181,797.768,417.65,803.834z"/>
</g>
<g>
	
		<rect x="609.437" y="423.209" fill="none" stroke="#000000" stroke-width="0.2835" stroke-miterlimit="10" width="71.506" height="1.668"/>
	
		<rect x="609.437" y="370.244" fill="none" stroke="#000000" stroke-width="0.2835" stroke-miterlimit="10" width="71.506" height="1.667"/>
	<polyline fill="none" stroke="#000000" stroke-width="0.2835" stroke-miterlimit="10" points="680.937,388.01 654.373,388.01 
		651.567,394.093 638.806,394.093 636.001,388.01 609.437,388.01 	"/>
	<polyline fill="none" stroke="#000000" stroke-width="0.2835" stroke-miterlimit="10" points="609.442,407.111 636.006,407.111 
		638.812,401.028 651.573,401.028 654.378,407.111 680.942,407.111 	"/>
	<g>
		<circle fill="none" stroke="#000000" stroke-width="0.2835" stroke-miterlimit="10" cx="645.189" cy="397.56" r="113.386"/>
		<path fill="none" stroke="#000000" stroke-width="0.2835" stroke-miterlimit="10" d="M650.743,401.028
			c0.577-1.022,0.91-2.201,0.912-3.458v-0.02c-0.002-1.256-0.336-2.434-0.911-3.455"/>
		<path fill="none" stroke="#000000" stroke-width="0.2835" stroke-miterlimit="10" d="M639.637,394.094
			c-0.579,1.022-0.911,2.2-0.913,3.457v0.02c0.002,1.255,0.336,2.435,0.911,3.456"/>
	</g>
</g>
<g>
	
		<rect x="690.016" y="753.615" fill="none" stroke="#000000" stroke-width="0.2835" stroke-miterlimit="10" width="71.506" height="1.667"/>
	
		<rect x="690.016" y="700.649" fill="none" stroke="#000000" stroke-width="0.2835" stroke-miterlimit="10" width="71.506" height="1.667"/>
	<polyline fill="none" stroke="#000000" stroke-width="0.2835" stroke-miterlimit="10" points="761.516,718.415 734.952,718.415 
		732.146,724.498 719.385,724.498 716.58,718.415 690.016,718.415 	"/>
	<polyline fill="none" stroke="#000000" stroke-width="0.2835" stroke-miterlimit="10" points="690.021,737.517 716.585,737.517 
		719.391,731.434 732.152,731.434 734.957,737.517 761.521,737.517 	"/>
	<g>
		<circle fill="none" stroke="#000000" stroke-width="0.2835" stroke-miterlimit="10" cx="725.769" cy="727.965" r="113.386"/>
		<path fill="none" stroke="#000000" stroke-width="0.2835" stroke-miterlimit="10" d="M731.322,731.434
			c0.577-1.022,0.91-2.201,0.912-3.458v-0.02c-0.002-1.256-0.336-2.435-0.911-3.455"/>
		<path fill="none" stroke="#000000" stroke-width="0.2835" stroke-miterlimit="10" d="M720.216,724.499
			c-0.579,1.022-0.911,2.2-0.913,3.457v0.02c0.002,1.255,0.336,2.435,0.911,3.456"/>
	</g>
</g>
<g>
	<polyline fill="none" stroke="#000000" stroke-width="0.2835" stroke-miterlimit="10" points="674.332,231.604 674.332,244.291 
		674.332,265.063 	"/>
	
		<line fill="none" stroke="#000000" stroke-width="0.2835" stroke-miterlimit="10" x1="651.655" y1="206.186" x2="657.324" y2="209.374"/>
	<polyline fill="none" stroke="#000000" stroke-width="0.2835" stroke-miterlimit="10" points="651.655,239.645 651.655,226.958 
		651.655,206.186 	"/>
	
		<line fill="none" stroke="#000000" stroke-width="0.2835" stroke-miterlimit="10" x1="657.325" y1="236.458" x2="651.655" y2="239.645"/>
	
		<line fill="none" stroke="#000000" stroke-width="0.2835" stroke-miterlimit="10" x1="662.994" y1="239.645" x2="657.325" y2="236.458"/>
	
		<line fill="none" stroke="#000000" stroke-width="0.2835" stroke-miterlimit="10" x1="662.994" y1="231.604" x2="662.994" y2="239.645"/>
	<path fill="none" stroke="#000000" stroke-width="0.2835" stroke-miterlimit="10" d="M657.324,209.374
		c0,0,0.925,6.671,2.835,11.115s2.835,11.115,2.835,11.115"/>
	
		<line fill="none" stroke="#000000" stroke-width="0.2835" stroke-miterlimit="10" x1="668.663" y1="234.792" x2="662.994" y2="231.604"/>
	<polyline fill="none" stroke="#000000" stroke-width="0.2835" stroke-miterlimit="10" points="668.663,201.333 668.663,214.019 
		668.663,234.792 	"/>
	
		<line fill="none" stroke="#000000" stroke-width="0.2835" stroke-miterlimit="10" x1="662.993" y1="204.52" x2="668.663" y2="201.333"/>
	
		<line fill="none" stroke="#000000" stroke-width="0.2835" stroke-miterlimit="10" x1="657.324" y1="201.333" x2="662.993" y2="204.52"/>
	
		<line fill="none" stroke="#000000" stroke-width="0.2835" stroke-miterlimit="10" x1="657.324" y1="209.374" x2="657.324" y2="201.333"/>
	<path fill="none" stroke="#000000" stroke-width="0.2835" stroke-miterlimit="10" d="M680.002,209.374
		c0,0-0.925,6.671-2.835,11.115s-2.835,11.115-2.835,11.115"/>
	
		<line fill="none" stroke="#000000" stroke-width="0.2835" stroke-miterlimit="10" x1="668.663" y1="234.792" x2="674.332" y2="231.604"/>
	
		<line fill="none" stroke="#000000" stroke-width="0.2835" stroke-miterlimit="10" x1="674.333" y1="204.52" x2="668.663" y2="201.333"/>
	
		<line fill="none" stroke="#000000" stroke-width="0.2835" stroke-miterlimit="10" x1="680.002" y1="201.333" x2="674.333" y2="204.52"/>
	
		<line fill="none" stroke="#000000" stroke-width="0.2835" stroke-miterlimit="10" x1="680.002" y1="209.374" x2="680.002" y2="201.333"/>
	
		<line fill="none" stroke="#000000" stroke-width="0.2835" stroke-miterlimit="10" x1="640.316" y1="241.311" x2="645.985" y2="244.499"/>
	
		<line fill="none" stroke="#000000" stroke-width="0.2835" stroke-miterlimit="10" x1="645.986" y1="271.583" x2="640.316" y2="274.77"/>
	
		<line fill="none" stroke="#000000" stroke-width="0.2835" stroke-miterlimit="10" x1="651.655" y1="274.77" x2="645.986" y2="271.583"/>
	
		<line fill="none" stroke="#000000" stroke-width="0.2835" stroke-miterlimit="10" x1="651.655" y1="266.73" x2="651.655" y2="274.77"/>
	<path fill="none" stroke="#000000" stroke-width="0.2835" stroke-miterlimit="10" d="M645.985,244.499
		c0,0,0.925,6.672,2.835,11.116c1.91,4.443,2.835,11.115,2.835,11.115"/>
	
		<line fill="none" stroke="#000000" stroke-width="0.2835" stroke-miterlimit="10" x1="657.324" y1="269.917" x2="651.655" y2="266.73"/>
	<polyline fill="none" stroke="#000000" stroke-width="0.2835" stroke-miterlimit="10" points="657.324,236.458 657.324,252.144 
		657.324,269.917 	"/>
	
		<line fill="none" stroke="#000000" stroke-width="0.2835" stroke-miterlimit="10" x1="645.985" y1="236.458" x2="651.654" y2="239.645"/>
	
		<line fill="none" stroke="#000000" stroke-width="0.2835" stroke-miterlimit="10" x1="645.985" y1="244.499" x2="645.985" y2="236.458"/>
	
		<line fill="none" stroke="#000000" stroke-width="0.2835" stroke-miterlimit="10" x1="674.332" y1="265.063" x2="668.663" y2="261.875"/>
	<path fill="none" stroke="#000000" stroke-width="0.2835" stroke-miterlimit="10" d="M668.663,261.875
		c0,0-0.925-6.672-2.835-11.116c-1.91-4.443-2.835-11.115-2.835-11.115"/>
	
		<line fill="none" stroke="#000000" stroke-width="0.2835" stroke-miterlimit="10" x1="662.994" y1="266.729" x2="657.324" y2="269.916"/>
	
		<line fill="none" stroke="#000000" stroke-width="0.2835" stroke-miterlimit="10" x1="668.663" y1="269.916" x2="662.994" y2="266.729"/>
	
		<line fill="none" stroke="#000000" stroke-width="0.2835" stroke-miterlimit="10" x1="668.663" y1="261.875" x2="668.663" y2="269.916"/>
	<polyline fill="none" stroke="#000000" stroke-width="0.2835" stroke-miterlimit="10" points="640.316,274.77 640.316,271.021 
		640.316,262.083 	"/>
	<polyline fill="none" stroke="#000000" stroke-width="0.2835" stroke-miterlimit="10" points="640.316,231.604 640.316,244.291 
		640.316,265.063 	"/>
	
		<line fill="none" stroke="#000000" stroke-width="0.2835" stroke-miterlimit="10" x1="628.979" y1="239.645" x2="623.31" y2="236.458"/>
	
		<line fill="none" stroke="#000000" stroke-width="0.2835" stroke-miterlimit="10" x1="628.979" y1="231.604" x2="628.979" y2="239.645"/>
	<path fill="none" stroke="#000000" stroke-width="0.2835" stroke-miterlimit="10" d="M623.309,209.374
		c0,0,0.925,6.671,2.835,11.115s2.835,11.115,2.835,11.115"/>
	
		<line fill="none" stroke="#000000" stroke-width="0.2835" stroke-miterlimit="10" x1="634.647" y1="234.792" x2="628.979" y2="231.604"/>
	<polyline fill="none" stroke="#000000" stroke-width="0.2835" stroke-miterlimit="10" points="634.647,201.333 634.647,214.019 
		634.647,234.792 	"/>
	
		<line fill="none" stroke="#000000" stroke-width="0.2835" stroke-miterlimit="10" x1="628.978" y1="204.52" x2="634.647" y2="201.333"/>
	
		<line fill="none" stroke="#000000" stroke-width="0.2835" stroke-miterlimit="10" x1="623.309" y1="201.333" x2="628.978" y2="204.52"/>
	
		<line fill="none" stroke="#000000" stroke-width="0.2835" stroke-miterlimit="10" x1="623.309" y1="209.374" x2="623.309" y2="201.333"/>
	
		<line fill="none" stroke="#000000" stroke-width="0.2835" stroke-miterlimit="10" x1="651.655" y1="206.186" x2="645.986" y2="209.374"/>
	
		<line fill="none" stroke="#000000" stroke-width="0.2835" stroke-miterlimit="10" x1="640.316" y1="239.645" x2="645.985" y2="236.458"/>
	<path fill="none" stroke="#000000" stroke-width="0.2835" stroke-miterlimit="10" d="M645.986,209.374
		c0,0-0.925,6.671-2.835,11.115s-2.835,11.115-2.835,11.115"/>
	
		<line fill="none" stroke="#000000" stroke-width="0.2835" stroke-miterlimit="10" x1="634.647" y1="234.792" x2="640.316" y2="231.604"/>
	
		<line fill="none" stroke="#000000" stroke-width="0.2835" stroke-miterlimit="10" x1="640.317" y1="204.52" x2="634.647" y2="201.333"/>
	
		<line fill="none" stroke="#000000" stroke-width="0.2835" stroke-miterlimit="10" x1="645.986" y1="201.333" x2="640.317" y2="204.52"/>
	
		<line fill="none" stroke="#000000" stroke-width="0.2835" stroke-miterlimit="10" x1="645.986" y1="209.374" x2="645.986" y2="201.333"/>
	<polyline fill="none" stroke="#000000" stroke-width="0.2835" stroke-miterlimit="10" points="623.309,236.458 623.309,252.144 
		623.309,269.917 	"/>
	
		<line fill="none" stroke="#000000" stroke-width="0.2835" stroke-miterlimit="10" x1="640.316" y1="265.063" x2="634.647" y2="261.875"/>
	<path fill="none" stroke="#000000" stroke-width="0.2835" stroke-miterlimit="10" d="M634.647,261.875
		c0,0-0.925-6.672-2.835-11.116c-1.91-4.443-2.835-11.115-2.835-11.115"/>
	
		<line fill="none" stroke="#000000" stroke-width="0.2835" stroke-miterlimit="10" x1="628.979" y1="266.729" x2="623.309" y2="269.916"/>
	
		<line fill="none" stroke="#000000" stroke-width="0.2835" stroke-miterlimit="10" x1="634.647" y1="269.916" x2="628.979" y2="266.729"/>
	
		<line fill="none" stroke="#000000" stroke-width="0.2835" stroke-miterlimit="10" x1="634.647" y1="261.875" x2="634.647" y2="269.916"/>
</g>
<g>
	<polyline fill="none" stroke="#000000" stroke-width="0.2835" stroke-miterlimit="10" points="542.336,807.979 542.336,821.586 
		497.266,821.586 497.266,831.223 484.51,831.223 484.51,729.176 542.336,729.176 542.336,742.782 497.266,742.783 497.266,807.98 	
		"/>
	<polyline fill="none" stroke="#000000" stroke-width="0.2835" stroke-miterlimit="10" points="497.266,750.154 510.872,750.154 
		510.873,795.225 576.07,795.225 576.069,750.154 589.676,750.154 589.676,795.225 599.312,795.225 599.312,807.98 497.266,807.98 	
		"/>
</g>
<g>
	<path fill="none" stroke="#000000" stroke-width="0.2835" stroke-miterlimit="10" d="M594.608,522.861"/>
	
		<rect x="427.929" y="424.189" fill="none" stroke="#000000" stroke-width="0.2835" stroke-miterlimit="10" width="9.921" height="9.916"/>
	
		<rect x="448.905" y="424.188" fill="none" stroke="#000000" stroke-width="0.2835" stroke-miterlimit="10" width="9.072" height="9.915"/>
	
		<rect x="822.232" y="424.186" fill="none" stroke="#000000" stroke-width="0.2835" stroke-miterlimit="10" width="9.921" height="9.915"/>
	
		<rect x="802.105" y="424.187" fill="none" stroke="#000000" stroke-width="0.2835" stroke-miterlimit="10" width="9.072" height="9.915"/>
	<path fill="none" stroke="#000000" stroke-width="0.2835" stroke-miterlimit="10" d="M819.309,417.1l-5.298-0.004l0.001-2.836
		l-11.34-2.123l-9.638,0.001v-4.866c0,0-19.923-1.416-27.718,6.379c-1.998,1.998-3.904,6.141-5.812,11.588
		c-5.153,16.043-11.649,43.922-18.991,60.562c-8.699,19.719-24.095,28.056-42.52,28.056c-5.381,0-132.247-0.001-135.905,0
		c-18.425,0-33.82-8.337-42.52-28.056c-4.174-9.46-8.074-22.552-11.609-35.036v0.001h-3.854V471.1h-8.333v-25.641h10.692v-0.001
		c-2.113-7.53-4.083-14.601-5.888-20.22c-1.907-5.447-3.813-9.59-5.812-11.588c-7.795-7.795-27.718-6.379-27.718-6.379v4.865h-9.639
		l-11.34,2.127l-0.002,2.838l-5.297-0.002l-21.26,1.51v21.08l21.262,1.501l5.298,0.004l-0.001,2.837l11.34,2.123l9.639-0.002v46.767
		h-5.386l-4.252,1.415v21.26l4.252,1.42h5.386v46.771h13.605v-35.435h65.197v35.435v5.385l1.415,4.252h21.26l1.42-4.252v-5.385
		h48.051v5.385l1.415,4.252h21.26l1.42-4.252v-5.385h48.049v5.385l1.415,4.252h21.26l1.42-4.252v-5.385h14.169h64.63v-46.771h5.386
		l4.252-1.415v-21.26l-4.252-1.42h-5.386v-46.765h9.638l11.34-2.127l0.002-2.839l5.297,0.003l21.26-1.51v-21.081L819.309,417.1z"/>
</g>
<g>
	<g>
		
			<rect x="410.384" y="310.459" fill="none" stroke="#000000" stroke-width="0.2835" stroke-miterlimit="10" width="9.352" height="34.017"/>
		<g>
			
				<rect x="410.386" y="88.664" fill="none" stroke="#000000" stroke-width="0.2835" stroke-miterlimit="10" width="9.352" height="24.094"/>
		</g>
		
			<rect x="410.384" y="241.228" fill="none" stroke="#000000" stroke-width="0.2835" stroke-miterlimit="10" width="9.352" height="24.095"/>
		
			<rect x="466.084" y="96.023" fill="none" stroke="#000000" stroke-width="0.2835" stroke-miterlimit="10" width="24.095" height="9.354"/>
		<polygon fill="none" stroke="#000000" stroke-width="0.2835" stroke-miterlimit="10" points="517.818,170.002 419.735,170.002 
			419.735,184.465 410.384,184.465 410.384,160.37 415.062,160.37 419.735,160.37 517.818,160.37 		"/>
		
			<rect x="536.95" y="96.024" fill="none" stroke="#000000" stroke-width="0.2835" stroke-miterlimit="10" width="34.016" height="9.354"/>
		
			<rect x="536.24" y="231.592" fill="none" stroke="#000000" stroke-width="0.2835" stroke-miterlimit="10" width="5.67" height="9.637"/>
		
			<rect x="548.997" y="231.592" fill="none" stroke="#000000" stroke-width="0.2835" stroke-miterlimit="10" width="8.504" height="9.637"/>
		
			<rect x="437.03" y="231.591" fill="none" stroke="#000000" stroke-width="0.2835" stroke-miterlimit="10" width="5.669" height="9.637"/>
		
			<rect x="421.438" y="231.591" fill="none" stroke="#000000" stroke-width="0.2835" stroke-miterlimit="10" width="8.504" height="9.637"/>
		<circle fill="none" stroke="#000000" stroke-width="0.2835" stroke-miterlimit="10" cx="489.469" cy="214.088" r="13.11"/>
		<path fill="none" stroke="#000000" stroke-width="0.2835" stroke-miterlimit="10" d="M404.431,425.975
			c0,0,20.394-18.81,79.369-51.023c84.331-46.063,123.199-106.67,126.144-162.99c2.697-51.591-15.303-119.469-66.881-143.921
			c-38.921-18.452-82.236-29.508-138.632,1.833"/>
		
			<rect x="437.739" y="360.225" fill="none" stroke="#000000" stroke-width="0.2835" stroke-miterlimit="10" width="9.638" height="22.637"/>
		
			<rect x="424.307" y="388.967" fill="none" stroke="#000000" stroke-width="0.2835" stroke-miterlimit="10" width="13.433" height="9.638"/>
		
			<rect x="424.307" y="344.482" fill="none" stroke="#000000" stroke-width="0.2835" stroke-miterlimit="10" width="13.433" height="9.638"/>
	</g>
	<g>
		
			<rect x="389.126" y="310.459" fill="none" stroke="#000000" stroke-width="0.2835" stroke-miterlimit="10" width="9.352" height="34.017"/>
		<g>
			
				<rect x="389.124" y="88.664" fill="none" stroke="#000000" stroke-width="0.2835" stroke-miterlimit="10" width="9.352" height="24.094"/>
		</g>
		
			<rect x="389.126" y="241.228" fill="none" stroke="#000000" stroke-width="0.2835" stroke-miterlimit="10" width="9.352" height="24.095"/>
		
			<rect x="318.684" y="96.023" fill="none" stroke="#000000" stroke-width="0.2835" stroke-miterlimit="10" width="24.095" height="9.354"/>
		<polygon fill="none" stroke="#000000" stroke-width="0.2835" stroke-miterlimit="10" points="291.044,170.002 389.126,170.002 
			389.126,184.465 398.478,184.465 398.478,160.37 392.524,160.37 389.126,160.37 291.044,160.37 		"/>
		
			<rect x="237.896" y="96.024" fill="none" stroke="#000000" stroke-width="0.2835" stroke-miterlimit="10" width="34.016" height="9.354"/>
		
			<rect x="341.359" y="132.448" fill="none" stroke="#000000" stroke-width="0.2835" stroke-miterlimit="10" width="12.756" height="9.354"/>
		
			<rect x="341.359" y="116.007" fill="none" stroke="#000000" stroke-width="0.2835" stroke-miterlimit="10" width="12.756" height="9.354"/>
		
			<rect x="266.952" y="231.592" fill="none" stroke="#000000" stroke-width="0.2835" stroke-miterlimit="10" width="5.669" height="9.637"/>
		
			<rect x="251.361" y="231.592" fill="none" stroke="#000000" stroke-width="0.2835" stroke-miterlimit="10" width="8.504" height="9.637"/>
		
			<rect x="366.162" y="231.591" fill="none" stroke="#000000" stroke-width="0.2835" stroke-miterlimit="10" width="5.67" height="9.637"/>
		
			<rect x="378.919" y="231.591" fill="none" stroke="#000000" stroke-width="0.2835" stroke-miterlimit="10" width="8.504" height="9.637"/>
		<circle fill="none" stroke="#000000" stroke-width="0.2835" stroke-miterlimit="10" cx="319.393" cy="214.088" r="13.11"/>
		<path fill="none" stroke="#000000" stroke-width="0.2835" stroke-miterlimit="10" d="M317.177,370.526
			c-78.874-45.478-115.407-104.031-118.258-158.565c-2.697-51.591,15.302-119.469,66.88-143.921
			c38.921-18.452,82.236-29.508,138.632,1.833v224.704v131.397c0,0-17.408-16.058-66.571-43.906l-0.001,0.002
			c4.133-1.692,7.044-5.755,7.045-10.498c0-6.262-5.077-11.338-11.339-11.338c-2.768,0-5.304,0.991-7.272,2.639h0.001
			L317.177,370.526z"/>
	</g>
</g>
<g>
	
		<rect id="XMLID_2_" x="315.639" y="547.043" fill="none" stroke="#000000" stroke-width="0.2835" stroke-miterlimit="10" width="9.354" height="24.096"/>
	
		<rect x="315.639" y="619.186" fill="none" stroke="#000000" stroke-width="0.2835" stroke-miterlimit="10" width="9.354" height="24.096"/>
	
		<rect x="251.014" y="680.837" fill="none" stroke="#000000" stroke-width="0.2835" stroke-miterlimit="10" width="9.632" height="85.039"/>
	
		<rect x="251.014" y="496.588" fill="none" stroke="#000000" stroke-width="0.2835" stroke-miterlimit="10" width="9.632" height="85.039"/>
	
		<rect x="315.639" y="691.329" fill="none" stroke="#000000" stroke-width="0.2835" stroke-miterlimit="10" width="9.354" height="24.096"/>
	
		<rect x="315.358" y="803.292" fill="none" stroke="#000000" stroke-width="0.2835" stroke-miterlimit="10" width="9.916" height="9.071"/>
	<circle fill="none" stroke="#000000" stroke-width="0.2835" stroke-miterlimit="10" cx="206.93" cy="631.234" r="8.504"/>
	<circle fill="none" stroke="#000000" stroke-width="0.2835" stroke-miterlimit="10" cx="36.851" cy="631.234" r="13.89"/>
	<path fill="none" stroke="#000000" stroke-width="0.2835" stroke-miterlimit="10" d="M273.391,648.253
		c-0.134,4.676,4.004,6.479,5.528,3.798c1.524-2.678,2.361-4.871,2.361-4.871c0.985,1.445,2.118,2.82,3.401,4.104
		c1.282,1.283,2.656,2.416,4.102,3.4c0,0-2.191,0.834-4.871,2.357c-2.68,1.525-0.865,5.675,3.809,5.542
		c6.258,0,11.33-8.072,11.33-14.33s-5.072-11.33-11.33-11.33S273.391,641.995,273.391,648.253z"/>
	
		<rect x="122.527" y="526.354" fill="none" stroke="#000000" stroke-width="0.2835" stroke-miterlimit="10" width="3.968" height="209.764"/>
	<path fill="none" stroke="#000000" stroke-width="0.2835" stroke-miterlimit="10" d="M233.742,640.461l-0.001-0.002
		c0.93-2.7,1.442-5.591,1.509-8.591c1.831-0.192,2.86-0.406,2.86-0.632s-1.025-0.438-2.85-0.631
		c-0.331-15.152-12.548-27.37-27.7-27.702c-0.192-1.824-0.406-2.849-0.631-2.849s-0.438,1.024-0.631,2.849
		c-15.152,0.332-27.369,12.55-27.7,27.702c-1.825,0.192-2.851,0.405-2.851,0.631s1.025,0.438,2.851,0.631
		c0.333,15.15,12.55,27.366,27.7,27.698c0.192,1.825,0.405,2.852,0.631,2.852s0.439-1.029,0.632-2.862
		c2.996-0.066,5.882-0.577,8.58-1.504l0.001,0.002c2.031,2.65,4.775,4.53,7.796,4.53c4.676,0.134,6.479-4.004,3.798-5.528
		c-2.678-1.524-4.871-2.361-4.871-2.361l-0.007-0.009c2.947-2.006,5.497-4.554,7.506-7.499l0.005,0.005c0,0,0.834,2.191,2.357,4.871
		c1.525,2.68,5.675,0.865,5.542-3.809C238.269,645.234,236.391,642.491,233.742,640.461z"/>
	
		<rect x="315.358" y="450.093" fill="none" stroke="#000000" stroke-width="0.2835" stroke-miterlimit="10" width="9.916" height="9.071"/>
	
		<rect x="88.582" y="429.117" fill="none" stroke="#000000" stroke-width="0.2835" stroke-miterlimit="10" width="9.915" height="9.921"/>
	
		<rect x="88.583" y="450.093" fill="none" stroke="#000000" stroke-width="0.2835" stroke-miterlimit="10" width="9.915" height="9.072"/>
	
		<rect x="88.588" y="823.419" fill="none" stroke="#000000" stroke-width="0.2835" stroke-miterlimit="10" width="9.915" height="9.921"/>
	
		<rect x="88.586" y="803.292" fill="none" stroke="#000000" stroke-width="0.2835" stroke-miterlimit="10" width="9.915" height="9.072"/>
	<circle fill="none" stroke="#000000" stroke-width="0.2835" stroke-miterlimit="10" cx="49.472" cy="499.428" r="13.323"/>
	<polygon fill="none" stroke="#000000" stroke-width="0.2835" stroke-miterlimit="10" points="348.662,468.234 332.361,468.234 
		332.364,462.938 330.854,441.676 309.774,441.676 308.272,462.938 308.27,468.234 260.646,468.234 260.646,462.849 259.23,458.597 
		237.971,458.597 236.551,462.849 236.551,468.234 189.143,468.234 189.143,516.795 179.788,516.795 179.788,468.234 
		179.788,462.849 178.373,458.597 157.113,458.597 155.693,462.849 155.693,468.234 110.551,468.234 110.551,458.599 
		108.424,447.259 105.585,447.257 105.588,441.96 104.078,420.7 82.997,420.7 81.496,441.962 81.492,447.26 78.656,447.259 
		76.533,458.599 76.534,468.234 76.534,495.375 66.895,495.375 66.896,468.234 32.05,468.234 32.049,495.375 22.411,495.375 
		22.411,468.234 8.504,468.234 8.504,794.222 76.534,794.222 76.534,803.858 78.661,815.198 81.5,815.2 81.497,820.497 
		83.007,841.757 104.088,841.757 105.589,820.495 105.593,815.197 108.429,815.198 110.552,803.858 110.551,794.222 
		155.693,794.222 155.693,799.607 157.113,803.859 178.373,803.859 179.788,799.607 179.788,794.222 179.788,745.662 
		189.143,745.662 189.143,794.222 236.551,794.222 236.551,799.607 237.971,803.859 259.23,803.859 260.646,799.607 
		260.646,794.222 281.194,794.222 281.194,701.812 306.99,701.812 306.99,794.222 308.27,794.222 308.272,799.519 309.774,820.78 
		330.854,820.78 332.364,799.519 332.361,794.222 348.662,794.222 	"/>
</g>
<g>
	<polyline fill="none" stroke="#000000" stroke-width="0.2835" stroke-miterlimit="10" points="437.447,517.569 437.447,507.931 
		437.447,503.359 447.085,503.359 447.085,489.927 437.447,489.927 437.447,480.289 420.759,480.289 420.759,489.927 
		395.327,489.927 395.327,480.289 383.324,480.289 383.324,507.931 	"/>
	<polygon fill="none" stroke="#000000" stroke-width="0.2835" stroke-miterlimit="10" points="383.324,545.211 400.013,545.211 
		400.013,535.573 425.444,535.573 425.444,545.211 437.447,545.211 437.447,517.569 410.386,517.569 410.386,507.931 
		383.324,507.931 383.324,517.569 383.324,522.141 373.687,522.141 373.687,535.573 383.324,535.573 	"/>
</g>
<g>
	<g>
		
			<rect x="70.676" y="173.486" fill="none" stroke="#000000" stroke-width="0.2835" stroke-miterlimit="10" width="15.023" height="8.221"/>
		<path fill="none" stroke="#000000" stroke-width="0.2835" stroke-miterlimit="10" d="M63.306,217.281v0.708l-9.213,16.299v11.339
			l17.33-17.33l0.013,0.01c1.541-1.557,3.68-2.521,6.044-2.521c2.348,0,4.474,0.951,6.013,2.49l0.014-0.009l17.358,17.36v-11.339
			l-9.212-16.299v-52.44"/>
	</g>
	<g>
		
			<rect x="121.7" y="173.486" fill="none" stroke="#000000" stroke-width="0.2835" stroke-miterlimit="10" width="15.023" height="8.221"/>
		<path fill="none" stroke="#000000" stroke-width="0.2835" stroke-miterlimit="10" d="M114.33,165.548v52.44l-9.213,16.299v11.339
			l17.33-17.33l0.013,0.01c1.541-1.557,3.68-2.521,6.044-2.521c2.349,0,4.474,0.951,6.013,2.49l0.014-0.009l17.359,17.36v-11.339
			l-9.213-16.299v-0.708"/>
	</g>
	<path fill="none" stroke="#000000" stroke-width="0.2835" stroke-miterlimit="10" d="M182.785,170.855v48.56l-11.764-0.001v9.637
		h-8.504v-11.77l-7.088,0.007v11.763h-5.669v-11.763l-7.085-0.007v-51.732h-79.37v51.732h-7.087v11.771h-0.705H50.55v-11.771h-7.086
		l-0.001,11.771h-8.504v-9.637H17.311c0,0-0.98-11.347,3.238-22.562c0.785-2.086,2.984-7.669,6.139-14.067
		c1.355-2.749,3.592-7.318,5.976-11.934l-0.001,0.004h5.416v20.333h8.333v-25.64H35.469l-0.002,0.002
		c2.24-4.111,4.355-7.654,5.738-9.164c4.496-4.905,19.007-4.445,19.007-4.445h112.937v13.607h-13.162v25.64h8.334v-20.333H182.785z"
		/>
</g>
<path fill="none" stroke="#000000" stroke-width="0.2835" stroke-miterlimit="10" d="M348.662,585.17h13.607v-13.162h25.64v8.334
	h-20.333v14.465h48.56l-0.001-11.764h9.637v-8.504h-11.77l0.007-7.088h11.763v-5.668h-11.763l-0.007-7.086H362.27v-79.369h51.732
	v-7.088h11.771v-0.705v-4.963h-11.771v-7.086l11.771-0.002v-8.504h-9.637v-17.648c0,0-11.347-0.98-22.562,3.238
	c-2.086,0.785-7.669,2.984-14.067,6.139c-2.749,1.355-7.318,3.592-11.934,5.977l0.004-0.002v5.416h20.333v8.334h-25.64V447.49
	l0.002-0.002c-4.111,2.24-7.654,4.355-9.164,5.738c-4.905,4.496-4.445,19.008-4.445,19.008"/>
</svg>
